<mxfile host="Electron" modified="2024-02-01T13:38:01.032Z" agent="Mozilla/5.0 (Macintosh; Intel Mac OS X 10_15_7) AppleWebKit/537.36 (KHTML, like Gecko) draw.io/23.0.2 Chrome/120.0.6099.109 Electron/28.1.0 Safari/537.36" etag="9-oeU1u5zH_0lgSAeras" version="23.0.2" type="device">
  <diagram name="Page-1" id="2YBvvXClWsGukQMizWep">
    <mxGraphModel dx="1405" dy="2132" grid="1" gridSize="10" guides="1" tooltips="1" connect="1" arrows="1" fold="1" page="1" pageScale="1" pageWidth="850" pageHeight="1100" math="0" shadow="0">
      <root>
        <mxCell id="0" />
        <mxCell id="1" parent="0" />
        <mxCell id="iSo6PfCxcORD5c3Ha1DJ-7" value="Creating Cards" style="swimlane;childLayout=stackLayout;resizeParent=1;resizeParentMax=0;startSize=20;html=1;" parent="1" vertex="1">
          <mxGeometry x="180" y="-1010" width="1250" height="622.58" as="geometry">
            <mxRectangle x="150" y="-190" width="130" height="30" as="alternateBounds" />
          </mxGeometry>
        </mxCell>
        <mxCell id="iSo6PfCxcORD5c3Ha1DJ-8" value="Administration" style="swimlane;startSize=20;html=1;" parent="iSo6PfCxcORD5c3Ha1DJ-7" vertex="1">
          <mxGeometry y="20" width="600" height="602.58" as="geometry" />
        </mxCell>
        <mxCell id="iSo6PfCxcORD5c3Ha1DJ-29" value="" style="edgeStyle=orthogonalEdgeStyle;rounded=0;orthogonalLoop=1;jettySize=auto;html=1;" parent="iSo6PfCxcORD5c3Ha1DJ-8" source="iSo6PfCxcORD5c3Ha1DJ-25" target="iSo6PfCxcORD5c3Ha1DJ-28" edge="1">
          <mxGeometry relative="1" as="geometry" />
        </mxCell>
        <mxCell id="iSo6PfCxcORD5c3Ha1DJ-25" value="&quot;CardBlueprint&quot; is validated" style="rounded=0;whiteSpace=wrap;html=1;" parent="iSo6PfCxcORD5c3Ha1DJ-8" vertex="1">
          <mxGeometry x="160" y="55" width="100" height="40" as="geometry" />
        </mxCell>
        <mxCell id="iSo6PfCxcORD5c3Ha1DJ-27" style="edgeStyle=orthogonalEdgeStyle;rounded=0;orthogonalLoop=1;jettySize=auto;html=1;" parent="iSo6PfCxcORD5c3Ha1DJ-8" source="iSo6PfCxcORD5c3Ha1DJ-26" target="iSo6PfCxcORD5c3Ha1DJ-25" edge="1">
          <mxGeometry relative="1" as="geometry" />
        </mxCell>
        <mxCell id="iSo6PfCxcORD5c3Ha1DJ-26" value="Administration user &quot;submits&quot; card form" style="rounded=1;whiteSpace=wrap;html=1;" parent="iSo6PfCxcORD5c3Ha1DJ-8" vertex="1">
          <mxGeometry x="20" y="50" width="90" height="50" as="geometry" />
        </mxCell>
        <mxCell id="iSo6PfCxcORD5c3Ha1DJ-31" value="no" style="edgeStyle=orthogonalEdgeStyle;rounded=0;orthogonalLoop=1;jettySize=auto;html=1;entryX=0;entryY=0.5;entryDx=0;entryDy=0;" parent="iSo6PfCxcORD5c3Ha1DJ-8" source="iSo6PfCxcORD5c3Ha1DJ-28" target="iSo6PfCxcORD5c3Ha1DJ-30" edge="1">
          <mxGeometry relative="1" as="geometry" />
        </mxCell>
        <mxCell id="iSo6PfCxcORD5c3Ha1DJ-34" value="yes" style="edgeStyle=orthogonalEdgeStyle;rounded=0;orthogonalLoop=1;jettySize=auto;html=1;exitX=0.5;exitY=1;exitDx=0;exitDy=0;" parent="iSo6PfCxcORD5c3Ha1DJ-8" source="iSo6PfCxcORD5c3Ha1DJ-28" target="iSo6PfCxcORD5c3Ha1DJ-33" edge="1">
          <mxGeometry relative="1" as="geometry" />
        </mxCell>
        <mxCell id="iSo6PfCxcORD5c3Ha1DJ-28" value="valid" style="rhombus;whiteSpace=wrap;html=1;rounded=0;" parent="iSo6PfCxcORD5c3Ha1DJ-8" vertex="1">
          <mxGeometry x="300" y="35" width="80" height="80" as="geometry" />
        </mxCell>
        <mxCell id="iSo6PfCxcORD5c3Ha1DJ-30" value="Card cannot be submitted" style="rounded=1;whiteSpace=wrap;html=1;" parent="iSo6PfCxcORD5c3Ha1DJ-8" vertex="1">
          <mxGeometry x="420" y="50" width="90" height="50" as="geometry" />
        </mxCell>
        <mxCell id="iSo6PfCxcORD5c3Ha1DJ-37" value="" style="edgeStyle=orthogonalEdgeStyle;rounded=0;orthogonalLoop=1;jettySize=auto;html=1;" parent="iSo6PfCxcORD5c3Ha1DJ-8" source="iSo6PfCxcORD5c3Ha1DJ-33" target="iSo6PfCxcORD5c3Ha1DJ-36" edge="1">
          <mxGeometry relative="1" as="geometry" />
        </mxCell>
        <mxCell id="iSo6PfCxcORD5c3Ha1DJ-33" value="&quot;CardBlueprints&quot; are converted to protobuf CardInfos" style="whiteSpace=wrap;html=1;rounded=0;" parent="iSo6PfCxcORD5c3Ha1DJ-8" vertex="1">
          <mxGeometry x="280" y="150" width="120" height="60" as="geometry" />
        </mxCell>
        <mxCell id="iSo6PfCxcORD5c3Ha1DJ-39" value="" style="edgeStyle=orthogonalEdgeStyle;rounded=0;orthogonalLoop=1;jettySize=auto;html=1;" parent="iSo6PfCxcORD5c3Ha1DJ-8" source="iSo6PfCxcORD5c3Ha1DJ-36" target="iSo6PfCxcORD5c3Ha1DJ-38" edge="1">
          <mxGeometry relative="1" as="geometry" />
        </mxCell>
        <mxCell id="iSo6PfCxcORD5c3Ha1DJ-36" value="Protobuf &quot;CardInfos&quot; are converted to binary" style="whiteSpace=wrap;html=1;rounded=0;" parent="iSo6PfCxcORD5c3Ha1DJ-8" vertex="1">
          <mxGeometry x="30" y="150" width="120" height="60" as="geometry" />
        </mxCell>
        <mxCell id="iSo6PfCxcORD5c3Ha1DJ-44" value="" style="edgeStyle=orthogonalEdgeStyle;rounded=0;orthogonalLoop=1;jettySize=auto;html=1;" parent="iSo6PfCxcORD5c3Ha1DJ-8" source="iSo6PfCxcORD5c3Ha1DJ-38" target="iSo6PfCxcORD5c3Ha1DJ-43" edge="1">
          <mxGeometry relative="1" as="geometry" />
        </mxCell>
        <mxCell id="iSo6PfCxcORD5c3Ha1DJ-38" value="Binary &quot;CardInfos&quot; are converted to base64 encoded string" style="whiteSpace=wrap;html=1;rounded=0;" parent="iSo6PfCxcORD5c3Ha1DJ-8" vertex="1">
          <mxGeometry x="30" y="250" width="120" height="60" as="geometry" />
        </mxCell>
        <mxCell id="iSo6PfCxcORD5c3Ha1DJ-43" value="List of encoded strings &amp;amp; flag createStatic cards is sent to backend" style="whiteSpace=wrap;html=1;rounded=0;" parent="iSo6PfCxcORD5c3Ha1DJ-8" vertex="1">
          <mxGeometry x="230" y="250" width="120" height="60" as="geometry" />
        </mxCell>
        <mxCell id="iSo6PfCxcORD5c3Ha1DJ-93" value="" style="edgeStyle=orthogonalEdgeStyle;rounded=0;orthogonalLoop=1;jettySize=auto;html=1;" parent="iSo6PfCxcORD5c3Ha1DJ-8" source="iSo6PfCxcORD5c3Ha1DJ-90" target="iSo6PfCxcORD5c3Ha1DJ-92" edge="1">
          <mxGeometry relative="1" as="geometry" />
        </mxCell>
        <mxCell id="iSo6PfCxcORD5c3Ha1DJ-90" value="Decode Codes to Protobuf" style="rounded=0;whiteSpace=wrap;html=1;" parent="iSo6PfCxcORD5c3Ha1DJ-8" vertex="1">
          <mxGeometry x="405" y="490" width="120" height="60" as="geometry" />
        </mxCell>
        <mxCell id="iSo6PfCxcORD5c3Ha1DJ-95" value="" style="edgeStyle=orthogonalEdgeStyle;rounded=0;orthogonalLoop=1;jettySize=auto;html=1;" parent="iSo6PfCxcORD5c3Ha1DJ-8" source="iSo6PfCxcORD5c3Ha1DJ-92" target="iSo6PfCxcORD5c3Ha1DJ-94" edge="1">
          <mxGeometry relative="1" as="geometry" />
        </mxCell>
        <mxCell id="iSo6PfCxcORD5c3Ha1DJ-92" value="Generate SVG for QRCode" style="whiteSpace=wrap;html=1;rounded=0;" parent="iSo6PfCxcORD5c3Ha1DJ-8" vertex="1">
          <mxGeometry x="230" y="490" width="120" height="60" as="geometry" />
        </mxCell>
        <mxCell id="iSo6PfCxcORD5c3Ha1DJ-94" value="Create PDF" style="whiteSpace=wrap;html=1;rounded=0;" parent="iSo6PfCxcORD5c3Ha1DJ-8" vertex="1">
          <mxGeometry x="30" y="490" width="120" height="60" as="geometry" />
        </mxCell>
        <mxCell id="iSo6PfCxcORD5c3Ha1DJ-9" value="Backend" style="swimlane;startSize=20;html=1;" parent="iSo6PfCxcORD5c3Ha1DJ-7" vertex="1">
          <mxGeometry x="600" y="20" width="650" height="602.58" as="geometry" />
        </mxCell>
        <mxCell id="iSo6PfCxcORD5c3Ha1DJ-52" value="" style="edgeStyle=orthogonalEdgeStyle;rounded=0;orthogonalLoop=1;jettySize=auto;html=1;" parent="iSo6PfCxcORD5c3Ha1DJ-9" source="iSo6PfCxcORD5c3Ha1DJ-49" target="iSo6PfCxcORD5c3Ha1DJ-51" edge="1">
          <mxGeometry relative="1" as="geometry" />
        </mxCell>
        <mxCell id="iSo6PfCxcORD5c3Ha1DJ-49" value="Decode base64 &quot;CardInfos&quot; to binary" style="whiteSpace=wrap;html=1;rounded=0;" parent="iSo6PfCxcORD5c3Ha1DJ-9" vertex="1">
          <mxGeometry x="40" y="40" width="120" height="60" as="geometry" />
        </mxCell>
        <mxCell id="iSo6PfCxcORD5c3Ha1DJ-56" style="edgeStyle=orthogonalEdgeStyle;rounded=0;orthogonalLoop=1;jettySize=auto;html=1;entryX=0;entryY=0.5;entryDx=0;entryDy=0;" parent="iSo6PfCxcORD5c3Ha1DJ-9" source="iSo6PfCxcORD5c3Ha1DJ-51" target="iSo6PfCxcORD5c3Ha1DJ-55" edge="1">
          <mxGeometry relative="1" as="geometry" />
        </mxCell>
        <mxCell id="iSo6PfCxcORD5c3Ha1DJ-51" value="Decode binary &quot;CardInfos&quot; to Protobuf CardInfo" style="whiteSpace=wrap;html=1;rounded=0;" parent="iSo6PfCxcORD5c3Ha1DJ-9" vertex="1">
          <mxGeometry x="200" y="40" width="120" height="60" as="geometry" />
        </mxCell>
        <mxCell id="iSo6PfCxcORD5c3Ha1DJ-62" value="no" style="edgeStyle=orthogonalEdgeStyle;rounded=0;orthogonalLoop=1;jettySize=auto;html=1;entryX=0;entryY=0.5;entryDx=0;entryDy=0;" parent="iSo6PfCxcORD5c3Ha1DJ-9" source="iSo6PfCxcORD5c3Ha1DJ-53" target="iSo6PfCxcORD5c3Ha1DJ-61" edge="1">
          <mxGeometry relative="1" as="geometry" />
        </mxCell>
        <mxCell id="iSo6PfCxcORD5c3Ha1DJ-53" value="has permission" style="rhombus;whiteSpace=wrap;html=1;rounded=0;" parent="iSo6PfCxcORD5c3Ha1DJ-9" vertex="1">
          <mxGeometry x="380" y="150" width="80" height="80" as="geometry" />
        </mxCell>
        <mxCell id="iSo6PfCxcORD5c3Ha1DJ-54" style="edgeStyle=orthogonalEdgeStyle;rounded=0;orthogonalLoop=1;jettySize=auto;html=1;" parent="iSo6PfCxcORD5c3Ha1DJ-9" source="iSo6PfCxcORD5c3Ha1DJ-55" target="iSo6PfCxcORD5c3Ha1DJ-53" edge="1">
          <mxGeometry relative="1" as="geometry" />
        </mxCell>
        <mxCell id="iSo6PfCxcORD5c3Ha1DJ-55" value="Check whether user has permission to create the card in the given project &amp;amp; region" style="rounded=0;whiteSpace=wrap;html=1;" parent="iSo6PfCxcORD5c3Ha1DJ-9" vertex="1">
          <mxGeometry x="360" y="40" width="120" height="60" as="geometry" />
        </mxCell>
        <mxCell id="iSo6PfCxcORD5c3Ha1DJ-58" value="Create random ByteArray aka&amp;nbsp;&lt;a href=&quot;https://security.stackexchange.com/questions/3272/password-hashing-add-salt-pepper-or-is-salt-enough&quot;&gt;Pepper&lt;/a&gt;" style="rounded=0;whiteSpace=wrap;html=1;fillColor=#d5e8d4;strokeColor=#FF00FF;" parent="iSo6PfCxcORD5c3Ha1DJ-9" vertex="1">
          <mxGeometry x="200" y="160" width="120" height="60" as="geometry" />
        </mxCell>
        <mxCell id="iSo6PfCxcORD5c3Ha1DJ-57" value="yes" style="edgeStyle=orthogonalEdgeStyle;rounded=0;orthogonalLoop=1;jettySize=auto;html=1;" parent="iSo6PfCxcORD5c3Ha1DJ-9" source="iSo6PfCxcORD5c3Ha1DJ-53" target="iSo6PfCxcORD5c3Ha1DJ-58" edge="1">
          <mxGeometry relative="1" as="geometry">
            <mxPoint x="330" y="190" as="targetPoint" />
          </mxGeometry>
        </mxCell>
        <mxCell id="iSo6PfCxcORD5c3Ha1DJ-65" value="" style="edgeStyle=orthogonalEdgeStyle;rounded=0;orthogonalLoop=1;jettySize=auto;html=1;" parent="iSo6PfCxcORD5c3Ha1DJ-9" source="iSo6PfCxcORD5c3Ha1DJ-60" target="iSo6PfCxcORD5c3Ha1DJ-64" edge="1">
          <mxGeometry relative="1" as="geometry" />
        </mxCell>
        <mxCell id="iSo6PfCxcORD5c3Ha1DJ-60" value="Create random ByteArray aka ActivationSecret" style="rounded=0;whiteSpace=wrap;html=1;strokeColor=#FF00FF;" parent="iSo6PfCxcORD5c3Ha1DJ-9" vertex="1">
          <mxGeometry x="40" y="160" width="120" height="60" as="geometry" />
        </mxCell>
        <mxCell id="iSo6PfCxcORD5c3Ha1DJ-59" style="edgeStyle=orthogonalEdgeStyle;rounded=0;orthogonalLoop=1;jettySize=auto;html=1;" parent="iSo6PfCxcORD5c3Ha1DJ-9" source="iSo6PfCxcORD5c3Ha1DJ-58" target="iSo6PfCxcORD5c3Ha1DJ-60" edge="1">
          <mxGeometry relative="1" as="geometry">
            <mxPoint x="160" y="190" as="targetPoint" />
          </mxGeometry>
        </mxCell>
        <mxCell id="iSo6PfCxcORD5c3Ha1DJ-61" value="Abort. Card cannot be created." style="rounded=1;whiteSpace=wrap;html=1;" parent="iSo6PfCxcORD5c3Ha1DJ-9" vertex="1">
          <mxGeometry x="510" y="160" width="120" height="60" as="geometry" />
        </mxCell>
        <mxCell id="iSo6PfCxcORD5c3Ha1DJ-84" value="" style="edgeStyle=orthogonalEdgeStyle;rounded=0;orthogonalLoop=1;jettySize=auto;html=1;" parent="iSo6PfCxcORD5c3Ha1DJ-9" source="iSo6PfCxcORD5c3Ha1DJ-64" target="iSo6PfCxcORD5c3Ha1DJ-83" edge="1">
          <mxGeometry relative="1" as="geometry" />
        </mxCell>
        <mxCell id="iSo6PfCxcORD5c3Ha1DJ-64" value="Add Salt &amp;amp; Hash ActivationSecret" style="whiteSpace=wrap;html=1;rounded=0;fillColor=#FFFFFF;strokeColor=#FF00FF;" parent="iSo6PfCxcORD5c3Ha1DJ-9" vertex="1">
          <mxGeometry x="40" y="271.29" width="120" height="60" as="geometry" />
        </mxCell>
        <mxCell id="iSo6PfCxcORD5c3Ha1DJ-69" value="" style="edgeStyle=orthogonalEdgeStyle;rounded=0;orthogonalLoop=1;jettySize=auto;html=1;" parent="iSo6PfCxcORD5c3Ha1DJ-9" source="iSo6PfCxcORD5c3Ha1DJ-66" target="iSo6PfCxcORD5c3Ha1DJ-68" edge="1">
          <mxGeometry relative="1" as="geometry" />
        </mxCell>
        <mxCell id="iSo6PfCxcORD5c3Ha1DJ-66" value="Hash cardInfo String using &lt;a href=&quot;https://www.rfc-editor.org/rfc/rfc2104&quot;&gt;Hmac Sha256&lt;/a&gt; algorithm with previously generated Pepper" style="whiteSpace=wrap;html=1;rounded=0;strokeColor=#FF00FF;fillColor=#D5E8D4;" parent="iSo6PfCxcORD5c3Ha1DJ-9" vertex="1">
          <mxGeometry x="360" y="261.93" width="120" height="78.71" as="geometry" />
        </mxCell>
        <mxCell id="iSo6PfCxcORD5c3Ha1DJ-73" value="" style="edgeStyle=orthogonalEdgeStyle;rounded=0;orthogonalLoop=1;jettySize=auto;html=1;" parent="iSo6PfCxcORD5c3Ha1DJ-9" source="iSo6PfCxcORD5c3Ha1DJ-68" target="iSo6PfCxcORD5c3Ha1DJ-72" edge="1">
          <mxGeometry relative="1" as="geometry" />
        </mxCell>
        <mxCell id="iSo6PfCxcORD5c3Ha1DJ-68" value="Build DynamicActivationCode&lt;br&gt;and repeat &lt;span style=&quot;background-color: rgb(213, 232, 212);&quot;&gt;green&lt;/span&gt; steps for StaticVerification Code if requested" style="whiteSpace=wrap;html=1;rounded=0;strokeColor=#FF00FF;" parent="iSo6PfCxcORD5c3Ha1DJ-9" vertex="1">
          <mxGeometry x="500" y="265.64" width="130" height="71.3" as="geometry" />
        </mxCell>
        <mxCell id="iSo6PfCxcORD5c3Ha1DJ-75" value="" style="edgeStyle=orthogonalEdgeStyle;rounded=0;orthogonalLoop=1;jettySize=auto;html=1;" parent="iSo6PfCxcORD5c3Ha1DJ-9" source="iSo6PfCxcORD5c3Ha1DJ-72" target="iSo6PfCxcORD5c3Ha1DJ-74" edge="1">
          <mxGeometry relative="1" as="geometry" />
        </mxCell>
        <mxCell id="iSo6PfCxcORD5c3Ha1DJ-72" value="Validate &lt;a href=&quot;https://github.com/digitalfabrik/entitlementcard/issues/690&quot;&gt;QR-Codes byte-size&lt;/a&gt;" style="whiteSpace=wrap;html=1;rounded=0;strokeColor=#FF00FF;" parent="iSo6PfCxcORD5c3Ha1DJ-9" vertex="1">
          <mxGeometry x="505" y="370" width="120" height="60" as="geometry" />
        </mxCell>
        <mxCell id="iSo6PfCxcORD5c3Ha1DJ-80" value="no" style="edgeStyle=orthogonalEdgeStyle;rounded=0;orthogonalLoop=1;jettySize=auto;html=1;entryX=1;entryY=0.5;entryDx=0;entryDy=0;" parent="iSo6PfCxcORD5c3Ha1DJ-9" source="iSo6PfCxcORD5c3Ha1DJ-74" target="iSo6PfCxcORD5c3Ha1DJ-79" edge="1">
          <mxGeometry relative="1" as="geometry" />
        </mxCell>
        <mxCell id="iSo6PfCxcORD5c3Ha1DJ-82" value="yes" style="edgeStyle=orthogonalEdgeStyle;rounded=0;orthogonalLoop=1;jettySize=auto;html=1;" parent="iSo6PfCxcORD5c3Ha1DJ-9" source="iSo6PfCxcORD5c3Ha1DJ-74" target="iSo6PfCxcORD5c3Ha1DJ-81" edge="1">
          <mxGeometry relative="1" as="geometry" />
        </mxCell>
        <mxCell id="iSo6PfCxcORD5c3Ha1DJ-74" value="Length Valid" style="rhombus;whiteSpace=wrap;html=1;rounded=0;" parent="iSo6PfCxcORD5c3Ha1DJ-9" vertex="1">
          <mxGeometry x="380" y="360" width="80" height="80" as="geometry" />
        </mxCell>
        <mxCell id="iSo6PfCxcORD5c3Ha1DJ-79" value="throw Error &amp;amp; rollback" style="rounded=1;whiteSpace=wrap;html=1;" parent="iSo6PfCxcORD5c3Ha1DJ-9" vertex="1">
          <mxGeometry x="220" y="370" width="120" height="60" as="geometry" />
        </mxCell>
        <mxCell id="iSo6PfCxcORD5c3Ha1DJ-87" style="edgeStyle=orthogonalEdgeStyle;rounded=0;orthogonalLoop=1;jettySize=auto;html=1;" parent="iSo6PfCxcORD5c3Ha1DJ-9" source="iSo6PfCxcORD5c3Ha1DJ-81" target="iSo6PfCxcORD5c3Ha1DJ-86" edge="1">
          <mxGeometry relative="1" as="geometry" />
        </mxCell>
        <mxCell id="iSo6PfCxcORD5c3Ha1DJ-81" value="Store Codes in DB" style="whiteSpace=wrap;html=1;rounded=0;" parent="iSo6PfCxcORD5c3Ha1DJ-9" vertex="1">
          <mxGeometry x="360" y="490" width="120" height="60" as="geometry" />
        </mxCell>
        <mxCell id="iSo6PfCxcORD5c3Ha1DJ-85" style="edgeStyle=orthogonalEdgeStyle;rounded=0;orthogonalLoop=1;jettySize=auto;html=1;entryX=0;entryY=0.5;entryDx=0;entryDy=0;" parent="iSo6PfCxcORD5c3Ha1DJ-9" source="iSo6PfCxcORD5c3Ha1DJ-83" target="iSo6PfCxcORD5c3Ha1DJ-66" edge="1">
          <mxGeometry relative="1" as="geometry" />
        </mxCell>
        <mxCell id="iSo6PfCxcORD5c3Ha1DJ-83" value="Convert Card Info to Canonical Json string" style="whiteSpace=wrap;html=1;rounded=0;fillColor=#d5e8d4;strokeColor=#FF00FF;" parent="iSo6PfCxcORD5c3Ha1DJ-9" vertex="1">
          <mxGeometry x="200" y="271.29" width="120" height="60" as="geometry" />
        </mxCell>
        <mxCell id="iSo6PfCxcORD5c3Ha1DJ-89" value="" style="edgeStyle=orthogonalEdgeStyle;rounded=0;orthogonalLoop=1;jettySize=auto;html=1;" parent="iSo6PfCxcORD5c3Ha1DJ-9" source="iSo6PfCxcORD5c3Ha1DJ-86" target="iSo6PfCxcORD5c3Ha1DJ-88" edge="1">
          <mxGeometry relative="1" as="geometry" />
        </mxCell>
        <mxCell id="iSo6PfCxcORD5c3Ha1DJ-86" value="Encode Codes to binary &amp;amp; base64" style="rounded=0;whiteSpace=wrap;html=1;" parent="iSo6PfCxcORD5c3Ha1DJ-9" vertex="1">
          <mxGeometry x="220" y="490" width="120" height="60" as="geometry" />
        </mxCell>
        <mxCell id="iSo6PfCxcORD5c3Ha1DJ-88" value="Return CardInfoHash&lt;br&gt;&amp;amp; encoded Codes" style="whiteSpace=wrap;html=1;rounded=0;" parent="iSo6PfCxcORD5c3Ha1DJ-9" vertex="1">
          <mxGeometry x="40" y="490" width="120" height="60" as="geometry" />
        </mxCell>
        <mxCell id="iSo6PfCxcORD5c3Ha1DJ-41" value="" style="edgeStyle=orthogonalEdgeStyle;rounded=0;orthogonalLoop=1;jettySize=auto;html=1;strokeWidth=2;exitX=1;exitY=0.5;exitDx=0;exitDy=0;entryX=0;entryY=0.5;entryDx=0;entryDy=0;" parent="iSo6PfCxcORD5c3Ha1DJ-7" source="iSo6PfCxcORD5c3Ha1DJ-43" target="iSo6PfCxcORD5c3Ha1DJ-49" edge="1">
          <mxGeometry relative="1" as="geometry">
            <mxPoint x="410" y="300" as="sourcePoint" />
            <mxPoint x="630" y="90" as="targetPoint" />
            <Array as="points">
              <mxPoint x="560" y="300" />
              <mxPoint x="560" y="90" />
            </Array>
          </mxGeometry>
        </mxCell>
        <mxCell id="iSo6PfCxcORD5c3Ha1DJ-91" style="edgeStyle=orthogonalEdgeStyle;rounded=0;orthogonalLoop=1;jettySize=auto;html=1;entryX=1;entryY=0.5;entryDx=0;entryDy=0;strokeWidth=2;" parent="iSo6PfCxcORD5c3Ha1DJ-7" source="iSo6PfCxcORD5c3Ha1DJ-88" target="iSo6PfCxcORD5c3Ha1DJ-90" edge="1">
          <mxGeometry relative="1" as="geometry" />
        </mxCell>
        <mxCell id="jFnTTniUjk-oeTC_pp5f-59" value="Activating Cards" style="swimlane;childLayout=stackLayout;resizeParent=1;resizeParentMax=0;startSize=20;html=1;" vertex="1" parent="1">
          <mxGeometry x="180" y="-330" width="1250" height="622.58" as="geometry">
            <mxRectangle x="150" y="-190" width="130" height="30" as="alternateBounds" />
          </mxGeometry>
        </mxCell>
        <mxCell id="jFnTTniUjk-oeTC_pp5f-60" value="Frontend" style="swimlane;startSize=20;html=1;" vertex="1" parent="jFnTTniUjk-oeTC_pp5f-59">
          <mxGeometry y="20" width="600" height="602.58" as="geometry" />
        </mxCell>
        <mxCell id="jFnTTniUjk-oeTC_pp5f-61" value="" style="edgeStyle=orthogonalEdgeStyle;rounded=0;orthogonalLoop=1;jettySize=auto;html=1;" edge="1" parent="jFnTTniUjk-oeTC_pp5f-60" source="jFnTTniUjk-oeTC_pp5f-62" target="jFnTTniUjk-oeTC_pp5f-67">
          <mxGeometry relative="1" as="geometry" />
        </mxCell>
        <mxCell id="jFnTTniUjk-oeTC_pp5f-62" value="Activation Code is Parsed (ByteList to Protobuf) &amp;amp; validated" style="rounded=0;whiteSpace=wrap;html=1;" vertex="1" parent="jFnTTniUjk-oeTC_pp5f-60">
          <mxGeometry x="150" y="42.5" width="100" height="65" as="geometry" />
        </mxCell>
        <mxCell id="jFnTTniUjk-oeTC_pp5f-63" style="edgeStyle=orthogonalEdgeStyle;rounded=0;orthogonalLoop=1;jettySize=auto;html=1;" edge="1" parent="jFnTTniUjk-oeTC_pp5f-60" source="jFnTTniUjk-oeTC_pp5f-64" target="jFnTTniUjk-oeTC_pp5f-62">
          <mxGeometry relative="1" as="geometry" />
        </mxCell>
        <mxCell id="jFnTTniUjk-oeTC_pp5f-64" value="User scans a QR-Code with the app" style="rounded=1;whiteSpace=wrap;html=1;" vertex="1" parent="jFnTTniUjk-oeTC_pp5f-60">
          <mxGeometry x="20" y="50" width="90" height="50" as="geometry" />
        </mxCell>
        <mxCell id="jFnTTniUjk-oeTC_pp5f-65" value="no" style="edgeStyle=orthogonalEdgeStyle;rounded=0;orthogonalLoop=1;jettySize=auto;html=1;entryX=0;entryY=0.5;entryDx=0;entryDy=0;" edge="1" parent="jFnTTniUjk-oeTC_pp5f-60" source="jFnTTniUjk-oeTC_pp5f-67" target="jFnTTniUjk-oeTC_pp5f-68">
          <mxGeometry relative="1" as="geometry" />
        </mxCell>
        <mxCell id="jFnTTniUjk-oeTC_pp5f-66" value="yes" style="edgeStyle=orthogonalEdgeStyle;rounded=0;orthogonalLoop=1;jettySize=auto;html=1;exitX=0.5;exitY=1;exitDx=0;exitDy=0;" edge="1" parent="jFnTTniUjk-oeTC_pp5f-60" source="jFnTTniUjk-oeTC_pp5f-67" target="jFnTTniUjk-oeTC_pp5f-70">
          <mxGeometry relative="1" as="geometry" />
        </mxCell>
        <mxCell id="jFnTTniUjk-oeTC_pp5f-67" value="valid" style="rhombus;whiteSpace=wrap;html=1;rounded=0;" vertex="1" parent="jFnTTniUjk-oeTC_pp5f-60">
          <mxGeometry x="300" y="35" width="80" height="80" as="geometry" />
        </mxCell>
        <mxCell id="jFnTTniUjk-oeTC_pp5f-68" value="Card cannot be activated" style="rounded=1;whiteSpace=wrap;html=1;" vertex="1" parent="jFnTTniUjk-oeTC_pp5f-60">
          <mxGeometry x="430" y="50" width="90" height="50" as="geometry" />
        </mxCell>
        <mxCell id="jFnTTniUjk-oeTC_pp5f-117" style="edgeStyle=orthogonalEdgeStyle;rounded=0;orthogonalLoop=1;jettySize=auto;html=1;entryX=0;entryY=0.5;entryDx=0;entryDy=0;" edge="1" parent="jFnTTniUjk-oeTC_pp5f-60" source="jFnTTniUjk-oeTC_pp5f-70" target="jFnTTniUjk-oeTC_pp5f-75">
          <mxGeometry relative="1" as="geometry" />
        </mxCell>
        <mxCell id="jFnTTniUjk-oeTC_pp5f-70" value="Base64 encode activationSecret" style="whiteSpace=wrap;html=1;rounded=0;" vertex="1" parent="jFnTTniUjk-oeTC_pp5f-60">
          <mxGeometry x="295" y="150" width="90" height="60" as="geometry" />
        </mxCell>
        <mxCell id="jFnTTniUjk-oeTC_pp5f-75" value="Send activationSecretHash &amp;amp; cardInfoHash to the backend to activate the card" style="whiteSpace=wrap;html=1;rounded=0;" vertex="1" parent="jFnTTniUjk-oeTC_pp5f-60">
          <mxGeometry x="410" y="140" width="130" height="80" as="geometry" />
        </mxCell>
        <mxCell id="jFnTTniUjk-oeTC_pp5f-76" value="" style="edgeStyle=orthogonalEdgeStyle;rounded=0;orthogonalLoop=1;jettySize=auto;html=1;" edge="1" parent="jFnTTniUjk-oeTC_pp5f-60" source="jFnTTniUjk-oeTC_pp5f-77" target="jFnTTniUjk-oeTC_pp5f-79">
          <mxGeometry relative="1" as="geometry" />
        </mxCell>
        <mxCell id="jFnTTniUjk-oeTC_pp5f-77" value="Decode base64 totpSecret" style="rounded=0;whiteSpace=wrap;html=1;" vertex="1" parent="jFnTTniUjk-oeTC_pp5f-60">
          <mxGeometry x="415" y="370" width="120" height="60" as="geometry" />
        </mxCell>
        <mxCell id="jFnTTniUjk-oeTC_pp5f-78" value="" style="edgeStyle=orthogonalEdgeStyle;rounded=0;orthogonalLoop=1;jettySize=auto;html=1;" edge="1" parent="jFnTTniUjk-oeTC_pp5f-60" source="jFnTTniUjk-oeTC_pp5f-79" target="jFnTTniUjk-oeTC_pp5f-80">
          <mxGeometry relative="1" as="geometry" />
        </mxCell>
        <mxCell id="jFnTTniUjk-oeTC_pp5f-79" value="Build (protobuf) DynamicUserCode" style="whiteSpace=wrap;html=1;rounded=0;" vertex="1" parent="jFnTTniUjk-oeTC_pp5f-60">
          <mxGeometry x="230" y="370" width="120" height="60" as="geometry" />
        </mxCell>
        <mxCell id="jFnTTniUjk-oeTC_pp5f-134" value="" style="edgeStyle=orthogonalEdgeStyle;rounded=0;orthogonalLoop=1;jettySize=auto;html=1;" edge="1" parent="jFnTTniUjk-oeTC_pp5f-60" source="jFnTTniUjk-oeTC_pp5f-80" target="jFnTTniUjk-oeTC_pp5f-133">
          <mxGeometry relative="1" as="geometry" />
        </mxCell>
        <mxCell id="jFnTTniUjk-oeTC_pp5f-80" value="Store Dynamic UserCode in secure_storage on device" style="whiteSpace=wrap;html=1;rounded=0;" vertex="1" parent="jFnTTniUjk-oeTC_pp5f-60">
          <mxGeometry x="40" y="370" width="120" height="60" as="geometry" />
        </mxCell>
        <mxCell id="jFnTTniUjk-oeTC_pp5f-133" value="Add Card to Card List" style="whiteSpace=wrap;html=1;rounded=0;" vertex="1" parent="jFnTTniUjk-oeTC_pp5f-60">
          <mxGeometry x="40" y="510" width="120" height="60" as="geometry" />
        </mxCell>
        <mxCell id="jFnTTniUjk-oeTC_pp5f-81" value="Backend" style="swimlane;startSize=20;html=1;" vertex="1" parent="jFnTTniUjk-oeTC_pp5f-59">
          <mxGeometry x="600" y="20" width="650" height="602.58" as="geometry" />
        </mxCell>
        <mxCell id="jFnTTniUjk-oeTC_pp5f-82" value="" style="edgeStyle=orthogonalEdgeStyle;rounded=0;orthogonalLoop=1;jettySize=auto;html=1;" edge="1" parent="jFnTTniUjk-oeTC_pp5f-81" source="jFnTTniUjk-oeTC_pp5f-83" target="jFnTTniUjk-oeTC_pp5f-85">
          <mxGeometry relative="1" as="geometry" />
        </mxCell>
        <mxCell id="jFnTTniUjk-oeTC_pp5f-83" value="Decode base64 &quot;CardInfoHash&quot; to binary" style="whiteSpace=wrap;html=1;rounded=0;" vertex="1" parent="jFnTTniUjk-oeTC_pp5f-81">
          <mxGeometry x="40" y="40" width="120" height="60" as="geometry" />
        </mxCell>
        <mxCell id="jFnTTniUjk-oeTC_pp5f-84" style="edgeStyle=orthogonalEdgeStyle;rounded=0;orthogonalLoop=1;jettySize=auto;html=1;entryX=0;entryY=0.5;entryDx=0;entryDy=0;" edge="1" parent="jFnTTniUjk-oeTC_pp5f-81" source="jFnTTniUjk-oeTC_pp5f-85" target="jFnTTniUjk-oeTC_pp5f-89">
          <mxGeometry relative="1" as="geometry" />
        </mxCell>
        <mxCell id="jFnTTniUjk-oeTC_pp5f-85" value="Decode base64 &quot;ActivationSecretHash&quot; to binary" style="whiteSpace=wrap;html=1;rounded=0;" vertex="1" parent="jFnTTniUjk-oeTC_pp5f-81">
          <mxGeometry x="190" y="40" width="140" height="60" as="geometry" />
        </mxCell>
        <mxCell id="jFnTTniUjk-oeTC_pp5f-86" value="no" style="edgeStyle=orthogonalEdgeStyle;rounded=0;orthogonalLoop=1;jettySize=auto;html=1;entryX=0;entryY=0.5;entryDx=0;entryDy=0;" edge="1" parent="jFnTTniUjk-oeTC_pp5f-81" source="jFnTTniUjk-oeTC_pp5f-87" target="jFnTTniUjk-oeTC_pp5f-95">
          <mxGeometry relative="1" as="geometry" />
        </mxCell>
        <mxCell id="jFnTTniUjk-oeTC_pp5f-87" value="card exists" style="rhombus;whiteSpace=wrap;html=1;rounded=0;" vertex="1" parent="jFnTTniUjk-oeTC_pp5f-81">
          <mxGeometry x="380" y="150" width="80" height="80" as="geometry" />
        </mxCell>
        <mxCell id="jFnTTniUjk-oeTC_pp5f-88" style="edgeStyle=orthogonalEdgeStyle;rounded=0;orthogonalLoop=1;jettySize=auto;html=1;" edge="1" parent="jFnTTniUjk-oeTC_pp5f-81" source="jFnTTniUjk-oeTC_pp5f-89" target="jFnTTniUjk-oeTC_pp5f-87">
          <mxGeometry relative="1" as="geometry" />
        </mxCell>
        <mxCell id="jFnTTniUjk-oeTC_pp5f-89" value="Check whether card hash is stored in DB" style="rounded=0;whiteSpace=wrap;html=1;" vertex="1" parent="jFnTTniUjk-oeTC_pp5f-81">
          <mxGeometry x="360" y="40" width="120" height="60" as="geometry" />
        </mxCell>
        <mxCell id="jFnTTniUjk-oeTC_pp5f-119" value="" style="edgeStyle=orthogonalEdgeStyle;rounded=0;orthogonalLoop=1;jettySize=auto;html=1;" edge="1" parent="jFnTTniUjk-oeTC_pp5f-81" source="jFnTTniUjk-oeTC_pp5f-90" target="jFnTTniUjk-oeTC_pp5f-118">
          <mxGeometry relative="1" as="geometry" />
        </mxCell>
        <mxCell id="jFnTTniUjk-oeTC_pp5f-90" value="Verify sent activation secret with card activation secret from db&lt;br&gt;&lt;a href=&quot;https://stackoverflow.com/questions/5393803/can-someone-explain-how-bcrypt-verifies-a-hash&quot;&gt;(verify HMAC-Sha256)&amp;nbsp;&lt;/a&gt;" style="rounded=0;whiteSpace=wrap;html=1;" vertex="1" parent="jFnTTniUjk-oeTC_pp5f-81">
          <mxGeometry x="190" y="160" width="140" height="60" as="geometry" />
        </mxCell>
        <mxCell id="jFnTTniUjk-oeTC_pp5f-91" value="yes" style="edgeStyle=orthogonalEdgeStyle;rounded=0;orthogonalLoop=1;jettySize=auto;html=1;" edge="1" parent="jFnTTniUjk-oeTC_pp5f-81" source="jFnTTniUjk-oeTC_pp5f-87" target="jFnTTniUjk-oeTC_pp5f-90">
          <mxGeometry relative="1" as="geometry">
            <mxPoint x="330" y="190" as="targetPoint" />
          </mxGeometry>
        </mxCell>
        <mxCell id="jFnTTniUjk-oeTC_pp5f-95" value="Abort. Card cannot be activated (Invalid card info Hash)." style="rounded=1;whiteSpace=wrap;html=1;" vertex="1" parent="jFnTTniUjk-oeTC_pp5f-81">
          <mxGeometry x="510" y="160" width="120" height="60" as="geometry" />
        </mxCell>
        <mxCell id="jFnTTniUjk-oeTC_pp5f-104" value="yes" style="edgeStyle=orthogonalEdgeStyle;rounded=0;orthogonalLoop=1;jettySize=auto;html=1;entryX=1;entryY=0.5;entryDx=0;entryDy=0;" edge="1" parent="jFnTTniUjk-oeTC_pp5f-81" source="jFnTTniUjk-oeTC_pp5f-106" target="jFnTTniUjk-oeTC_pp5f-107">
          <mxGeometry relative="1" as="geometry" />
        </mxCell>
        <mxCell id="jFnTTniUjk-oeTC_pp5f-126" value="no" style="edgeStyle=orthogonalEdgeStyle;rounded=0;orthogonalLoop=1;jettySize=auto;html=1;" edge="1" parent="jFnTTniUjk-oeTC_pp5f-81" source="jFnTTniUjk-oeTC_pp5f-106" target="jFnTTniUjk-oeTC_pp5f-125">
          <mxGeometry relative="1" as="geometry" />
        </mxCell>
        <mxCell id="jFnTTniUjk-oeTC_pp5f-106" value="expired or revoked?" style="rhombus;whiteSpace=wrap;html=1;rounded=0;" vertex="1" parent="jFnTTniUjk-oeTC_pp5f-81">
          <mxGeometry x="380" y="360" width="80" height="80" as="geometry" />
        </mxCell>
        <mxCell id="jFnTTniUjk-oeTC_pp5f-107" value="Abort. Card cannot be activated as it is revoked or expired." style="rounded=1;whiteSpace=wrap;html=1;" vertex="1" parent="jFnTTniUjk-oeTC_pp5f-81">
          <mxGeometry x="200" y="370" width="120" height="60" as="geometry" />
        </mxCell>
        <mxCell id="jFnTTniUjk-oeTC_pp5f-130" value="" style="edgeStyle=orthogonalEdgeStyle;rounded=0;orthogonalLoop=1;jettySize=auto;html=1;" edge="1" parent="jFnTTniUjk-oeTC_pp5f-81" source="jFnTTniUjk-oeTC_pp5f-109" target="jFnTTniUjk-oeTC_pp5f-114">
          <mxGeometry relative="1" as="geometry" />
        </mxCell>
        <mxCell id="jFnTTniUjk-oeTC_pp5f-109" value="Store totpSecret &amp;amp; firstActivationDate in DB" style="whiteSpace=wrap;html=1;rounded=0;" vertex="1" parent="jFnTTniUjk-oeTC_pp5f-81">
          <mxGeometry x="360" y="490" width="120" height="60" as="geometry" />
        </mxCell>
        <mxCell id="jFnTTniUjk-oeTC_pp5f-114" value="Return base64 totpSecret" style="whiteSpace=wrap;html=1;rounded=0;" vertex="1" parent="jFnTTniUjk-oeTC_pp5f-81">
          <mxGeometry x="200" y="490" width="120" height="60" as="geometry" />
        </mxCell>
        <mxCell id="jFnTTniUjk-oeTC_pp5f-121" value="" style="edgeStyle=orthogonalEdgeStyle;rounded=0;orthogonalLoop=1;jettySize=auto;html=1;" edge="1" parent="jFnTTniUjk-oeTC_pp5f-81" source="jFnTTniUjk-oeTC_pp5f-118" target="jFnTTniUjk-oeTC_pp5f-120">
          <mxGeometry relative="1" as="geometry" />
        </mxCell>
        <mxCell id="jFnTTniUjk-oeTC_pp5f-123" value="" style="edgeStyle=orthogonalEdgeStyle;rounded=0;orthogonalLoop=1;jettySize=auto;html=1;" edge="1" parent="jFnTTniUjk-oeTC_pp5f-81" source="jFnTTniUjk-oeTC_pp5f-118" target="jFnTTniUjk-oeTC_pp5f-122">
          <mxGeometry relative="1" as="geometry" />
        </mxCell>
        <mxCell id="jFnTTniUjk-oeTC_pp5f-118" value="Is Valid" style="rhombus;whiteSpace=wrap;html=1;rounded=0;" vertex="1" parent="jFnTTniUjk-oeTC_pp5f-81">
          <mxGeometry x="220" y="256.94" width="80" height="80" as="geometry" />
        </mxCell>
        <mxCell id="jFnTTniUjk-oeTC_pp5f-120" value="Abort. Card cannot be activated (Invalid activation secret Hash)" style="whiteSpace=wrap;html=1;rounded=1;" vertex="1" parent="jFnTTniUjk-oeTC_pp5f-81">
          <mxGeometry x="40" y="266.94" width="120" height="60" as="geometry" />
        </mxCell>
        <mxCell id="jFnTTniUjk-oeTC_pp5f-124" value="" style="edgeStyle=orthogonalEdgeStyle;rounded=0;orthogonalLoop=1;jettySize=auto;html=1;" edge="1" parent="jFnTTniUjk-oeTC_pp5f-81" source="jFnTTniUjk-oeTC_pp5f-122" target="jFnTTniUjk-oeTC_pp5f-106">
          <mxGeometry relative="1" as="geometry" />
        </mxCell>
        <mxCell id="jFnTTniUjk-oeTC_pp5f-122" value="Check whether card is revoked or expired" style="whiteSpace=wrap;html=1;rounded=0;" vertex="1" parent="jFnTTniUjk-oeTC_pp5f-81">
          <mxGeometry x="360" y="266.94" width="120" height="60" as="geometry" />
        </mxCell>
        <mxCell id="jFnTTniUjk-oeTC_pp5f-128" value="" style="edgeStyle=orthogonalEdgeStyle;rounded=0;orthogonalLoop=1;jettySize=auto;html=1;" edge="1" parent="jFnTTniUjk-oeTC_pp5f-81" source="jFnTTniUjk-oeTC_pp5f-125" target="jFnTTniUjk-oeTC_pp5f-127">
          <mxGeometry relative="1" as="geometry" />
        </mxCell>
        <mxCell id="jFnTTniUjk-oeTC_pp5f-125" value="generate &lt;a href=&quot;https://www.ionos.de/digitalguide/server/sicherheit/totp/&quot;&gt;Totp secret&lt;/a&gt;&amp;nbsp;(HMAC-Sha256)" style="whiteSpace=wrap;html=1;rounded=0;" vertex="1" parent="jFnTTniUjk-oeTC_pp5f-81">
          <mxGeometry x="515" y="370" width="120" height="60" as="geometry" />
        </mxCell>
        <mxCell id="jFnTTniUjk-oeTC_pp5f-129" value="" style="edgeStyle=orthogonalEdgeStyle;rounded=0;orthogonalLoop=1;jettySize=auto;html=1;" edge="1" parent="jFnTTniUjk-oeTC_pp5f-81" source="jFnTTniUjk-oeTC_pp5f-127" target="jFnTTniUjk-oeTC_pp5f-109">
          <mxGeometry relative="1" as="geometry" />
        </mxCell>
        <mxCell id="jFnTTniUjk-oeTC_pp5f-127" value="Base64 encode totpSecret" style="whiteSpace=wrap;html=1;rounded=0;" vertex="1" parent="jFnTTniUjk-oeTC_pp5f-81">
          <mxGeometry x="515" y="490" width="120" height="60" as="geometry" />
        </mxCell>
        <mxCell id="jFnTTniUjk-oeTC_pp5f-115" value="" style="edgeStyle=orthogonalEdgeStyle;rounded=0;orthogonalLoop=1;jettySize=auto;html=1;strokeWidth=2;exitX=1;exitY=0.5;exitDx=0;exitDy=0;entryX=0;entryY=0.5;entryDx=0;entryDy=0;" edge="1" parent="jFnTTniUjk-oeTC_pp5f-59" source="jFnTTniUjk-oeTC_pp5f-75" target="jFnTTniUjk-oeTC_pp5f-83">
          <mxGeometry relative="1" as="geometry">
            <mxPoint x="410" y="300" as="sourcePoint" />
            <mxPoint x="630" y="90" as="targetPoint" />
            <Array as="points">
              <mxPoint x="560" y="200" />
              <mxPoint x="560" y="90" />
            </Array>
          </mxGeometry>
        </mxCell>
        <mxCell id="jFnTTniUjk-oeTC_pp5f-116" style="edgeStyle=orthogonalEdgeStyle;rounded=0;orthogonalLoop=1;jettySize=auto;html=1;entryX=1;entryY=0.5;entryDx=0;entryDy=0;strokeWidth=2;" edge="1" parent="jFnTTniUjk-oeTC_pp5f-59" source="jFnTTniUjk-oeTC_pp5f-114" target="jFnTTniUjk-oeTC_pp5f-77">
          <mxGeometry relative="1" as="geometry" />
        </mxCell>
      </root>
    </mxGraphModel>
  </diagram>
</mxfile>
